<?xml version="1.0" encoding="iso-8859-1"?>
<!-- Generator: Adobe Illustrator 19.0.0, SVG Export Plug-In . SVG Version: 6.00 Build 0)  -->
<svg xmlns="http://www.w3.org/2000/svg" xmlns:xlink="http://www.w3.org/1999/xlink" version="1.1" id="Layer_1" x="0px" y="0px" viewBox="0 0 512 512" style="enable-background:new 0 0 512 512;" xml:space="preserve" width="512px" height="512px">
<g>
	<g>
		<path d="M460.211,386.359l-1.812-0.516c-26.469-7.125-35.423-13.938-47.204-18.422c-41.796-15.922-52.671-27.406-55.452-32.829    c-0.095-0.186-0.188-0.404-0.267-0.593l-0.266-36.531c22.328-29.876,38.282-67.156,38.344-105.773    c0,0,15.656-60.945-1.874-101.352c-16.766-38.617-60.579-39.477-64.406-39.477c-0.188,0-0.282,0.008-0.282,0.008    s-2.656-23.781,25.812-40.89C357.586,7.117,330.274,0,292.524,0c-57.648,0-139.617,16.586-168.859,90.204    c-18.18,45.781-4.742,113.14-4.742,113.14l0.023-0.039c2.844,34.438,17.766,67.288,37.836,94.164L156.524,334    c-0.086,0.188-0.164,0.407-0.266,0.593c-2.781,5.423-13.656,16.907-55.453,32.829c-11.781,4.484-20.742,11.297-47.211,18.422    l-1.812,0.516c-24.094,7.969-40.305,30.312-40.305,55.531V512h244.524h244.523v-70.109    C500.524,416.672,484.305,394.328,460.211,386.359z M143.493,98.078c5.734-14.445,14.273-27.055,25.375-37.461    c10.07-9.445,22.492-17.344,36.93-23.492c30.648-13.055,64.077-15.789,86.727-15.789c7.312,0,14,0.273,19.905,0.711    c-1.374,2.703-2.453,5.266-3.28,7.609c-4.25,11.82-3.641,21.047-3.345,23.594l1.876,19.625l19.655-0.671    c0.938,0.007,9.813,0.179,19.845,3.914c12.094,4.508,20.249,11.938,24.921,22.719c3.453,7.93,5.547,17.969,6.267,29.679    l-7.578-11.828l-8.078-12.578l-14.562,3.281c-0.469,0.102-45.563,10.149-92.148,10.149c-46.289,0-89.891-10.008-90.32-10.109    l-15.648-3.657l-7.828,14.039l-5.555,9.953C137.923,116.344,140.212,106.336,143.493,98.078z M139.782,191.492    c0-10.68,0.985-20.984,2.946-30.82l18.102-32.468c0,0,45.672,10.671,95.172,10.671c49.492,0,96.836-10.671,96.836-10.671    l13.812,21.538c3.688,13.047,5.562,27.04,5.562,41.75c0,35.133-15.968,73.5-43.843,105.258    c-12.251,13.969-25.969,25.625-39.673,33.781c-12.233,7.25-23.851,11.25-32.694,11.25c-8.843,0-20.453-4-32.688-11.25    c-13.719-8.156-27.438-19.812-39.688-33.781C155.767,264.992,139.782,226.625,139.782,191.492z M479.195,490.656H256.001H32.806    V441.89c0-15.906,10.164-29.984,25.328-35.156l1.195-0.359c19.945-5.359,30.961-10.625,39.812-14.875    c3.422-1.625,6.383-3.062,9.258-4.156c23.891-9.094,56.805-23.469,66.828-42.984c0.383-0.767,0.664-1.39,0.82-1.767l1.781-3.937    l0.031-4.517l0.086-12.328c25.68,25.407,55.039,41.313,78.055,41.313c23.023,0,52.367-15.906,78.055-41.313l0.094,12.328    l0.031,4.517l1.781,3.937c0.14,0.345,0.422,1,0.812,1.735c10.031,19.547,42.938,33.922,66.845,43.031    c2.858,1.078,5.812,2.516,9.249,4.141c8.845,4.25,19.86,9.516,39.813,14.875l1.187,0.359c15.157,5.172,25.328,19.25,25.328,35.156    V490.656z" fill="#555555"/>
	</g>
</g>
<g>
</g>
<g>
</g>
<g>
</g>
<g>
</g>
<g>
</g>
<g>
</g>
<g>
</g>
<g>
</g>
<g>
</g>
<g>
</g>
<g>
</g>
<g>
</g>
<g>
</g>
<g>
</g>
<g>
</g>
</svg>
